<mxfile host="app.diagrams.net" modified="2023-11-22T10:49:50.832Z" agent="Mozilla/5.0 (Windows NT 10.0; Win64; x64) AppleWebKit/537.36 (KHTML, like Gecko) Chrome/118.0.0.0 Safari/537.36 OPR/104.0.0.0" etag="uCWzaps-HtVjJRMLwjJd" version="22.1.3" type="github">
  <diagram id="C5RBs43oDa-KdzZeNtuy" name="Page-1">
    <mxGraphModel dx="1327" dy="730" grid="1" gridSize="10" guides="1" tooltips="1" connect="1" arrows="1" fold="1" page="1" pageScale="1" pageWidth="827" pageHeight="1169" math="0" shadow="0">
      <root>
        <mxCell id="WIyWlLk6GJQsqaUBKTNV-0" />
        <mxCell id="WIyWlLk6GJQsqaUBKTNV-1" parent="WIyWlLk6GJQsqaUBKTNV-0" />
        <mxCell id="OIUXYBhPibZIO1Cqo6UY-12" style="edgeStyle=orthogonalEdgeStyle;rounded=0;orthogonalLoop=1;jettySize=auto;html=1;exitX=0.5;exitY=1;exitDx=0;exitDy=0;exitPerimeter=0;entryX=0.5;entryY=0;entryDx=0;entryDy=0;strokeWidth=2;" edge="1" parent="WIyWlLk6GJQsqaUBKTNV-1" source="OIUXYBhPibZIO1Cqo6UY-0" target="OIUXYBhPibZIO1Cqo6UY-3">
          <mxGeometry relative="1" as="geometry" />
        </mxCell>
        <mxCell id="OIUXYBhPibZIO1Cqo6UY-0" value="Початок&amp;nbsp;" style="strokeWidth=2;html=1;shape=mxgraph.flowchart.terminator;whiteSpace=wrap;" vertex="1" parent="WIyWlLk6GJQsqaUBKTNV-1">
          <mxGeometry x="110" y="60" width="100" height="60" as="geometry" />
        </mxCell>
        <mxCell id="OIUXYBhPibZIO1Cqo6UY-26" style="edgeStyle=orthogonalEdgeStyle;rounded=0;orthogonalLoop=1;jettySize=auto;html=1;exitX=1;exitY=0.5;exitDx=0;exitDy=0;entryX=0;entryY=0.5;entryDx=0;entryDy=0;strokeWidth=2;" edge="1" parent="WIyWlLk6GJQsqaUBKTNV-1" source="OIUXYBhPibZIO1Cqo6UY-1" target="OIUXYBhPibZIO1Cqo6UY-21">
          <mxGeometry relative="1" as="geometry" />
        </mxCell>
        <mxCell id="OIUXYBhPibZIO1Cqo6UY-1" value="Пошук нової роботи&amp;nbsp;" style="rounded=0;whiteSpace=wrap;html=1;strokeWidth=2;" vertex="1" parent="WIyWlLk6GJQsqaUBKTNV-1">
          <mxGeometry x="100" y="555" width="120" height="60" as="geometry" />
        </mxCell>
        <mxCell id="OIUXYBhPibZIO1Cqo6UY-20" style="edgeStyle=orthogonalEdgeStyle;rounded=0;orthogonalLoop=1;jettySize=auto;html=1;exitX=0.5;exitY=1;exitDx=0;exitDy=0;entryX=0.5;entryY=0;entryDx=0;entryDy=0;strokeWidth=2;" edge="1" parent="WIyWlLk6GJQsqaUBKTNV-1" source="OIUXYBhPibZIO1Cqo6UY-2" target="OIUXYBhPibZIO1Cqo6UY-18">
          <mxGeometry relative="1" as="geometry" />
        </mxCell>
        <mxCell id="OIUXYBhPibZIO1Cqo6UY-2" value="Документи, які потрібно мати для працевлаштування" style="shape=parallelogram;perimeter=parallelogramPerimeter;whiteSpace=wrap;html=1;fixedSize=1;strokeWidth=2;" vertex="1" parent="WIyWlLk6GJQsqaUBKTNV-1">
          <mxGeometry x="60" y="360" width="200" height="90" as="geometry" />
        </mxCell>
        <mxCell id="OIUXYBhPibZIO1Cqo6UY-13" style="edgeStyle=orthogonalEdgeStyle;rounded=0;orthogonalLoop=1;jettySize=auto;html=1;exitX=0.5;exitY=1;exitDx=0;exitDy=0;entryX=0.5;entryY=0;entryDx=0;entryDy=0;strokeWidth=2;" edge="1" parent="WIyWlLk6GJQsqaUBKTNV-1" source="OIUXYBhPibZIO1Cqo6UY-3" target="OIUXYBhPibZIO1Cqo6UY-5">
          <mxGeometry relative="1" as="geometry" />
        </mxCell>
        <mxCell id="OIUXYBhPibZIO1Cqo6UY-3" value="Збір документів" style="whiteSpace=wrap;html=1;strokeWidth=2;" vertex="1" parent="WIyWlLk6GJQsqaUBKTNV-1">
          <mxGeometry x="100" y="140" width="120" height="60" as="geometry" />
        </mxCell>
        <mxCell id="OIUXYBhPibZIO1Cqo6UY-8" style="edgeStyle=orthogonalEdgeStyle;rounded=0;orthogonalLoop=1;jettySize=auto;html=1;exitX=1;exitY=0.5;exitDx=0;exitDy=0;entryX=1;entryY=0.5;entryDx=0;entryDy=0;strokeWidth=2;" edge="1" parent="WIyWlLk6GJQsqaUBKTNV-1" source="OIUXYBhPibZIO1Cqo6UY-5" target="OIUXYBhPibZIO1Cqo6UY-3">
          <mxGeometry relative="1" as="geometry" />
        </mxCell>
        <mxCell id="OIUXYBhPibZIO1Cqo6UY-9" style="edgeStyle=orthogonalEdgeStyle;rounded=0;orthogonalLoop=1;jettySize=auto;html=1;exitX=0.5;exitY=1;exitDx=0;exitDy=0;entryX=0.5;entryY=0;entryDx=0;entryDy=0;strokeWidth=2;" edge="1" parent="WIyWlLk6GJQsqaUBKTNV-1" source="OIUXYBhPibZIO1Cqo6UY-5" target="OIUXYBhPibZIO1Cqo6UY-2">
          <mxGeometry relative="1" as="geometry" />
        </mxCell>
        <mxCell id="OIUXYBhPibZIO1Cqo6UY-5" value="Чи всіх документів вистачає?" style="rhombus;whiteSpace=wrap;html=1;strokeWidth=2;" vertex="1" parent="WIyWlLk6GJQsqaUBKTNV-1">
          <mxGeometry x="110" y="210" width="100" height="120" as="geometry" />
        </mxCell>
        <mxCell id="OIUXYBhPibZIO1Cqo6UY-10" value="Ні" style="text;html=1;align=center;verticalAlign=middle;resizable=0;points=[];autosize=1;strokeColor=none;fillColor=none;strokeWidth=2;" vertex="1" parent="WIyWlLk6GJQsqaUBKTNV-1">
          <mxGeometry x="200" y="240" width="30" height="30" as="geometry" />
        </mxCell>
        <mxCell id="OIUXYBhPibZIO1Cqo6UY-11" value="Так" style="text;html=1;align=center;verticalAlign=middle;resizable=0;points=[];autosize=1;strokeColor=none;fillColor=none;strokeWidth=2;" vertex="1" parent="WIyWlLk6GJQsqaUBKTNV-1">
          <mxGeometry x="120" y="330" width="40" height="30" as="geometry" />
        </mxCell>
        <mxCell id="OIUXYBhPibZIO1Cqo6UY-19" style="edgeStyle=orthogonalEdgeStyle;rounded=0;orthogonalLoop=1;jettySize=auto;html=1;exitX=0.5;exitY=1;exitDx=0;exitDy=0;entryX=0.5;entryY=0;entryDx=0;entryDy=0;strokeWidth=2;" edge="1" parent="WIyWlLk6GJQsqaUBKTNV-1" source="OIUXYBhPibZIO1Cqo6UY-18" target="OIUXYBhPibZIO1Cqo6UY-1">
          <mxGeometry relative="1" as="geometry" />
        </mxCell>
        <mxCell id="OIUXYBhPibZIO1Cqo6UY-18" value="Проходження медогляду" style="whiteSpace=wrap;html=1;strokeWidth=2;" vertex="1" parent="WIyWlLk6GJQsqaUBKTNV-1">
          <mxGeometry x="100" y="470" width="120" height="60" as="geometry" />
        </mxCell>
        <mxCell id="OIUXYBhPibZIO1Cqo6UY-27" style="edgeStyle=orthogonalEdgeStyle;rounded=0;orthogonalLoop=1;jettySize=auto;html=1;exitX=1;exitY=0.5;exitDx=0;exitDy=0;entryX=0;entryY=0.5;entryDx=0;entryDy=0;strokeWidth=2;" edge="1" parent="WIyWlLk6GJQsqaUBKTNV-1" source="OIUXYBhPibZIO1Cqo6UY-21" target="OIUXYBhPibZIO1Cqo6UY-22">
          <mxGeometry relative="1" as="geometry" />
        </mxCell>
        <mxCell id="OIUXYBhPibZIO1Cqo6UY-21" value="Подання заяви та співбесіда" style="whiteSpace=wrap;html=1;strokeWidth=2;" vertex="1" parent="WIyWlLk6GJQsqaUBKTNV-1">
          <mxGeometry x="250" y="555" width="120" height="60" as="geometry" />
        </mxCell>
        <mxCell id="OIUXYBhPibZIO1Cqo6UY-23" style="edgeStyle=orthogonalEdgeStyle;rounded=0;orthogonalLoop=1;jettySize=auto;html=1;exitX=0.5;exitY=1;exitDx=0;exitDy=0;entryX=0.5;entryY=1;entryDx=0;entryDy=0;strokeWidth=2;" edge="1" parent="WIyWlLk6GJQsqaUBKTNV-1" source="OIUXYBhPibZIO1Cqo6UY-22" target="OIUXYBhPibZIO1Cqo6UY-1">
          <mxGeometry relative="1" as="geometry" />
        </mxCell>
        <mxCell id="OIUXYBhPibZIO1Cqo6UY-32" style="edgeStyle=orthogonalEdgeStyle;rounded=0;orthogonalLoop=1;jettySize=auto;html=1;exitX=1;exitY=0.5;exitDx=0;exitDy=0;entryX=0;entryY=0.5;entryDx=0;entryDy=0;strokeWidth=2;" edge="1" parent="WIyWlLk6GJQsqaUBKTNV-1" source="OIUXYBhPibZIO1Cqo6UY-22" target="OIUXYBhPibZIO1Cqo6UY-28">
          <mxGeometry relative="1" as="geometry" />
        </mxCell>
        <mxCell id="OIUXYBhPibZIO1Cqo6UY-22" value="Чи готові вас прийняти на роботу" style="rhombus;whiteSpace=wrap;html=1;strokeWidth=2;" vertex="1" parent="WIyWlLk6GJQsqaUBKTNV-1">
          <mxGeometry x="390" y="530" width="110" height="110" as="geometry" />
        </mxCell>
        <mxCell id="OIUXYBhPibZIO1Cqo6UY-24" value="Ні" style="text;html=1;align=center;verticalAlign=middle;resizable=0;points=[];autosize=1;strokeColor=none;fillColor=none;strokeWidth=2;" vertex="1" parent="WIyWlLk6GJQsqaUBKTNV-1">
          <mxGeometry x="405" y="618" width="30" height="30" as="geometry" />
        </mxCell>
        <mxCell id="OIUXYBhPibZIO1Cqo6UY-25" value="Так" style="text;html=1;align=center;verticalAlign=middle;resizable=0;points=[];autosize=1;strokeColor=none;fillColor=none;strokeWidth=2;" vertex="1" parent="WIyWlLk6GJQsqaUBKTNV-1">
          <mxGeometry x="480" y="588" width="40" height="30" as="geometry" />
        </mxCell>
        <mxCell id="OIUXYBhPibZIO1Cqo6UY-33" style="edgeStyle=orthogonalEdgeStyle;rounded=0;orthogonalLoop=1;jettySize=auto;html=1;exitX=1;exitY=0.5;exitDx=0;exitDy=0;entryX=0;entryY=0.5;entryDx=0;entryDy=0;strokeWidth=2;" edge="1" parent="WIyWlLk6GJQsqaUBKTNV-1" source="OIUXYBhPibZIO1Cqo6UY-28" target="OIUXYBhPibZIO1Cqo6UY-29">
          <mxGeometry relative="1" as="geometry" />
        </mxCell>
        <mxCell id="OIUXYBhPibZIO1Cqo6UY-28" value="Подання документів" style="whiteSpace=wrap;html=1;strokeWidth=2;" vertex="1" parent="WIyWlLk6GJQsqaUBKTNV-1">
          <mxGeometry x="540" y="555" width="120" height="60" as="geometry" />
        </mxCell>
        <mxCell id="OIUXYBhPibZIO1Cqo6UY-31" style="edgeStyle=orthogonalEdgeStyle;rounded=0;orthogonalLoop=1;jettySize=auto;html=1;exitX=0.5;exitY=0;exitDx=0;exitDy=0;entryX=1;entryY=0.5;entryDx=0;entryDy=0;strokeWidth=2;" edge="1" parent="WIyWlLk6GJQsqaUBKTNV-1" source="OIUXYBhPibZIO1Cqo6UY-29" target="OIUXYBhPibZIO1Cqo6UY-30">
          <mxGeometry relative="1" as="geometry" />
        </mxCell>
        <mxCell id="OIUXYBhPibZIO1Cqo6UY-36" style="edgeStyle=orthogonalEdgeStyle;rounded=0;orthogonalLoop=1;jettySize=auto;html=1;exitX=0.5;exitY=1;exitDx=0;exitDy=0;entryX=0.5;entryY=0;entryDx=0;entryDy=0;strokeWidth=2;" edge="1" parent="WIyWlLk6GJQsqaUBKTNV-1" source="OIUXYBhPibZIO1Cqo6UY-29" target="OIUXYBhPibZIO1Cqo6UY-39">
          <mxGeometry relative="1" as="geometry">
            <mxPoint x="730" y="670" as="targetPoint" />
          </mxGeometry>
        </mxCell>
        <mxCell id="OIUXYBhPibZIO1Cqo6UY-29" value="Чи всіх документів вистачає?" style="rhombus;whiteSpace=wrap;html=1;strokeWidth=2;" vertex="1" parent="WIyWlLk6GJQsqaUBKTNV-1">
          <mxGeometry x="690" y="545" width="80" height="80" as="geometry" />
        </mxCell>
        <mxCell id="OIUXYBhPibZIO1Cqo6UY-34" style="edgeStyle=orthogonalEdgeStyle;rounded=0;orthogonalLoop=1;jettySize=auto;html=1;exitX=0;exitY=0.5;exitDx=0;exitDy=0;strokeWidth=2;" edge="1" parent="WIyWlLk6GJQsqaUBKTNV-1" source="OIUXYBhPibZIO1Cqo6UY-30">
          <mxGeometry relative="1" as="geometry">
            <mxPoint x="520" y="580" as="targetPoint" />
          </mxGeometry>
        </mxCell>
        <mxCell id="OIUXYBhPibZIO1Cqo6UY-30" value="Перегляд та пошук необхідних документів" style="whiteSpace=wrap;html=1;strokeWidth=2;" vertex="1" parent="WIyWlLk6GJQsqaUBKTNV-1">
          <mxGeometry x="540" y="460" width="120" height="60" as="geometry" />
        </mxCell>
        <mxCell id="OIUXYBhPibZIO1Cqo6UY-35" value="Ні" style="text;html=1;align=center;verticalAlign=middle;resizable=0;points=[];autosize=1;strokeColor=none;fillColor=none;strokeWidth=2;" vertex="1" parent="WIyWlLk6GJQsqaUBKTNV-1">
          <mxGeometry x="695" y="518" width="30" height="30" as="geometry" />
        </mxCell>
        <mxCell id="OIUXYBhPibZIO1Cqo6UY-37" value="Так" style="text;html=1;align=center;verticalAlign=middle;resizable=0;points=[];autosize=1;strokeColor=none;fillColor=none;strokeWidth=2;" vertex="1" parent="WIyWlLk6GJQsqaUBKTNV-1">
          <mxGeometry x="690" y="628" width="40" height="30" as="geometry" />
        </mxCell>
        <mxCell id="OIUXYBhPibZIO1Cqo6UY-44" style="edgeStyle=orthogonalEdgeStyle;rounded=0;orthogonalLoop=1;jettySize=auto;html=1;exitX=0.5;exitY=1;exitDx=0;exitDy=0;entryX=0.5;entryY=0;entryDx=0;entryDy=0;strokeWidth=2;" edge="1" parent="WIyWlLk6GJQsqaUBKTNV-1" source="OIUXYBhPibZIO1Cqo6UY-39" target="OIUXYBhPibZIO1Cqo6UY-41">
          <mxGeometry relative="1" as="geometry" />
        </mxCell>
        <mxCell id="OIUXYBhPibZIO1Cqo6UY-39" value="Перегляд наказу про прийом працівника" style="whiteSpace=wrap;html=1;strokeWidth=2;" vertex="1" parent="WIyWlLk6GJQsqaUBKTNV-1">
          <mxGeometry x="670" y="670" width="120" height="60" as="geometry" />
        </mxCell>
        <mxCell id="OIUXYBhPibZIO1Cqo6UY-42" style="edgeStyle=orthogonalEdgeStyle;rounded=0;orthogonalLoop=1;jettySize=auto;html=1;exitX=0;exitY=0.5;exitDx=0;exitDy=0;strokeWidth=2;" edge="1" parent="WIyWlLk6GJQsqaUBKTNV-1" source="OIUXYBhPibZIO1Cqo6UY-41">
          <mxGeometry relative="1" as="geometry">
            <mxPoint x="160" y="660" as="targetPoint" />
          </mxGeometry>
        </mxCell>
        <mxCell id="OIUXYBhPibZIO1Cqo6UY-46" style="edgeStyle=orthogonalEdgeStyle;rounded=0;orthogonalLoop=1;jettySize=auto;html=1;exitX=0.5;exitY=1;exitDx=0;exitDy=0;entryX=0.5;entryY=0;entryDx=0;entryDy=0;strokeWidth=2;" edge="1" parent="WIyWlLk6GJQsqaUBKTNV-1" source="OIUXYBhPibZIO1Cqo6UY-41" target="OIUXYBhPibZIO1Cqo6UY-45">
          <mxGeometry relative="1" as="geometry" />
        </mxCell>
        <mxCell id="OIUXYBhPibZIO1Cqo6UY-41" value="Чи все вас влаштовує?" style="rhombus;whiteSpace=wrap;html=1;strokeWidth=2;" vertex="1" parent="WIyWlLk6GJQsqaUBKTNV-1">
          <mxGeometry x="690" y="750" width="90" height="120" as="geometry" />
        </mxCell>
        <mxCell id="OIUXYBhPibZIO1Cqo6UY-43" value="Ні" style="text;html=1;align=center;verticalAlign=middle;resizable=0;points=[];autosize=1;strokeColor=none;fillColor=none;strokeWidth=2;" vertex="1" parent="WIyWlLk6GJQsqaUBKTNV-1">
          <mxGeometry x="650" y="780" width="30" height="30" as="geometry" />
        </mxCell>
        <mxCell id="OIUXYBhPibZIO1Cqo6UY-50" style="edgeStyle=orthogonalEdgeStyle;rounded=0;orthogonalLoop=1;jettySize=auto;html=1;exitX=0.5;exitY=1;exitDx=0;exitDy=0;entryX=0.5;entryY=0;entryDx=0;entryDy=0;strokeWidth=2;" edge="1" parent="WIyWlLk6GJQsqaUBKTNV-1" source="OIUXYBhPibZIO1Cqo6UY-45" target="OIUXYBhPibZIO1Cqo6UY-48">
          <mxGeometry relative="1" as="geometry" />
        </mxCell>
        <mxCell id="OIUXYBhPibZIO1Cqo6UY-45" value="Підписання документу" style="whiteSpace=wrap;html=1;strokeWidth=2;" vertex="1" parent="WIyWlLk6GJQsqaUBKTNV-1">
          <mxGeometry x="675" y="890" width="120" height="60" as="geometry" />
        </mxCell>
        <mxCell id="OIUXYBhPibZIO1Cqo6UY-47" value="Так" style="text;html=1;align=center;verticalAlign=middle;resizable=0;points=[];autosize=1;strokeColor=none;fillColor=none;strokeWidth=2;" vertex="1" parent="WIyWlLk6GJQsqaUBKTNV-1">
          <mxGeometry x="730" y="858" width="40" height="30" as="geometry" />
        </mxCell>
        <mxCell id="OIUXYBhPibZIO1Cqo6UY-51" style="edgeStyle=orthogonalEdgeStyle;rounded=0;orthogonalLoop=1;jettySize=auto;html=1;exitX=0;exitY=0.5;exitDx=0;exitDy=0;entryX=1;entryY=0.5;entryDx=0;entryDy=0;strokeWidth=2;" edge="1" parent="WIyWlLk6GJQsqaUBKTNV-1" source="OIUXYBhPibZIO1Cqo6UY-48" target="OIUXYBhPibZIO1Cqo6UY-49">
          <mxGeometry relative="1" as="geometry" />
        </mxCell>
        <mxCell id="OIUXYBhPibZIO1Cqo6UY-48" value="Перелік відомостей, що є комерційною таємницею" style="shape=parallelogram;perimeter=parallelogramPerimeter;whiteSpace=wrap;html=1;fixedSize=1;strokeWidth=2;" vertex="1" parent="WIyWlLk6GJQsqaUBKTNV-1">
          <mxGeometry x="645" y="990" width="180" height="80" as="geometry" />
        </mxCell>
        <mxCell id="OIUXYBhPibZIO1Cqo6UY-63" style="edgeStyle=orthogonalEdgeStyle;rounded=0;orthogonalLoop=1;jettySize=auto;html=1;exitX=0;exitY=0.5;exitDx=0;exitDy=0;entryX=1;entryY=0.5;entryDx=0;entryDy=0;strokeWidth=2;" edge="1" parent="WIyWlLk6GJQsqaUBKTNV-1" source="OIUXYBhPibZIO1Cqo6UY-49" target="OIUXYBhPibZIO1Cqo6UY-60">
          <mxGeometry relative="1" as="geometry" />
        </mxCell>
        <mxCell id="OIUXYBhPibZIO1Cqo6UY-49" value="Запис в трудовій книжці про працевлаштування" style="whiteSpace=wrap;html=1;strokeWidth=2;" vertex="1" parent="WIyWlLk6GJQsqaUBKTNV-1">
          <mxGeometry x="500" y="1000" width="120" height="60" as="geometry" />
        </mxCell>
        <mxCell id="OIUXYBhPibZIO1Cqo6UY-58" value="Кінець" style="strokeWidth=2;html=1;shape=mxgraph.flowchart.terminator;whiteSpace=wrap;" vertex="1" parent="WIyWlLk6GJQsqaUBKTNV-1">
          <mxGeometry x="20" y="1000" width="100" height="60" as="geometry" />
        </mxCell>
        <mxCell id="OIUXYBhPibZIO1Cqo6UY-59" value="Ви маєте роботу" style="shape=parallelogram;perimeter=parallelogramPerimeter;whiteSpace=wrap;html=1;fixedSize=1;strokeWidth=2;" vertex="1" parent="WIyWlLk6GJQsqaUBKTNV-1">
          <mxGeometry x="140" y="1000" width="120" height="60" as="geometry" />
        </mxCell>
        <mxCell id="OIUXYBhPibZIO1Cqo6UY-62" style="edgeStyle=orthogonalEdgeStyle;rounded=0;orthogonalLoop=1;jettySize=auto;html=1;exitX=0.5;exitY=0;exitDx=0;exitDy=0;entryX=0.5;entryY=1;entryDx=0;entryDy=0;strokeWidth=2;" edge="1" parent="WIyWlLk6GJQsqaUBKTNV-1" source="OIUXYBhPibZIO1Cqo6UY-60" target="OIUXYBhPibZIO1Cqo6UY-61">
          <mxGeometry relative="1" as="geometry" />
        </mxCell>
        <mxCell id="OIUXYBhPibZIO1Cqo6UY-64" style="edgeStyle=orthogonalEdgeStyle;rounded=0;orthogonalLoop=1;jettySize=auto;html=1;exitX=0;exitY=0.5;exitDx=0;exitDy=0;entryX=1;entryY=0.5;entryDx=0;entryDy=0;strokeWidth=2;" edge="1" parent="WIyWlLk6GJQsqaUBKTNV-1" source="OIUXYBhPibZIO1Cqo6UY-60" target="OIUXYBhPibZIO1Cqo6UY-59">
          <mxGeometry relative="1" as="geometry" />
        </mxCell>
        <mxCell id="OIUXYBhPibZIO1Cqo6UY-60" value="Чи подобається вам робота?" style="rhombus;whiteSpace=wrap;html=1;strokeWidth=2;" vertex="1" parent="WIyWlLk6GJQsqaUBKTNV-1">
          <mxGeometry x="340" y="975" width="110" height="110" as="geometry" />
        </mxCell>
        <mxCell id="OIUXYBhPibZIO1Cqo6UY-65" style="edgeStyle=orthogonalEdgeStyle;rounded=0;orthogonalLoop=1;jettySize=auto;html=1;exitX=0;exitY=0.5;exitDx=0;exitDy=0;strokeWidth=2;" edge="1" parent="WIyWlLk6GJQsqaUBKTNV-1" source="OIUXYBhPibZIO1Cqo6UY-61">
          <mxGeometry relative="1" as="geometry">
            <mxPoint x="160" y="810" as="targetPoint" />
          </mxGeometry>
        </mxCell>
        <mxCell id="OIUXYBhPibZIO1Cqo6UY-61" value="Звільнення" style="whiteSpace=wrap;html=1;strokeWidth=2;" vertex="1" parent="WIyWlLk6GJQsqaUBKTNV-1">
          <mxGeometry x="335" y="888" width="120" height="60" as="geometry" />
        </mxCell>
        <mxCell id="OIUXYBhPibZIO1Cqo6UY-66" value="Ні" style="text;html=1;align=center;verticalAlign=middle;resizable=0;points=[];autosize=1;strokeColor=none;fillColor=none;strokeWidth=2;" vertex="1" parent="WIyWlLk6GJQsqaUBKTNV-1">
          <mxGeometry x="395" y="958" width="30" height="30" as="geometry" />
        </mxCell>
        <mxCell id="OIUXYBhPibZIO1Cqo6UY-67" value="Так" style="text;html=1;align=center;verticalAlign=middle;resizable=0;points=[];autosize=1;strokeColor=none;fillColor=none;strokeWidth=2;" vertex="1" parent="WIyWlLk6GJQsqaUBKTNV-1">
          <mxGeometry x="290" y="1000" width="40" height="30" as="geometry" />
        </mxCell>
        <mxCell id="OIUXYBhPibZIO1Cqo6UY-68" style="edgeStyle=orthogonalEdgeStyle;rounded=0;orthogonalLoop=1;jettySize=auto;html=1;exitX=0;exitY=0.5;exitDx=0;exitDy=0;entryX=1;entryY=0.5;entryDx=0;entryDy=0;entryPerimeter=0;strokeWidth=2;" edge="1" parent="WIyWlLk6GJQsqaUBKTNV-1" source="OIUXYBhPibZIO1Cqo6UY-59" target="OIUXYBhPibZIO1Cqo6UY-58">
          <mxGeometry relative="1" as="geometry" />
        </mxCell>
      </root>
    </mxGraphModel>
  </diagram>
</mxfile>
